<svg width="60" height="60" viewBox="0 0 60 60" fill="none" xmlns="http://www.w3.org/2000/svg">
<path d="M53.8847 15.8525C53.6347 15.5539 53.2763 15.3746 52.8282 15.4232L48.3986 15.9085C46.2222 16.2184 43.7544 16.5693 41.9587 16.5693L36.9205 16.0765C36.9205 16.0765 31.6231 15.5464 31.5707 15.5464H26.2582V14.7213C26.2582 12.8771 24.7575 11.3763 22.9131 11.3763H22.5436V8.93477C22.5436 8.04249 22.1963 7.2024 21.5653 6.57145C20.9345 5.94068 20.0945 5.58972 19.1985 5.58972H12.736C11.8438 5.58972 11.0037 5.94068 10.3729 6.57145C9.73811 7.20246 9.39099 8.04255 9.39099 8.93477V11.3763H9.02131C8.12903 11.3763 7.28913 11.7236 6.65818 12.3582C6.02357 12.9891 5.67627 13.829 5.67627 14.7213V50.97C5.67627 51.8659 6.02357 52.706 6.65818 53.337C7.28913 53.9678 8.12903 54.3151 9.02131 54.3151H22.9131C24.7574 54.3151 26.2581 52.8142 26.2581 50.97V50.003H31.4997L31.5036 50.0068L36.5546 50.5032L42.0072 51.026C44.0045 51.026 46.5692 50.6825 48.8317 50.3801L52.8618 49.9508C53.0709 49.9284 53.2687 49.8612 53.4516 49.7604C53.9706 49.5439 54.3326 49.0362 54.3326 48.4388V16.883C54.3327 16.476 54.1573 16.1138 53.8847 15.8525Z" fill="#27323A"/>
<path d="M42.5038 19.4178C43.5941 19.3843 44.8073 19.2723 46.0469 19.1192V22.397C44.7888 22.5576 43.5716 22.6771 42.5038 22.7145V19.4178ZM37.0476 18.9661L40.5906 19.306V22.6099L37.0476 22.2626V18.9661ZM31.5895 18.4322L35.136 18.7795V22.0796L31.6492 21.7436C31.629 21.74 31.6091 21.735 31.5895 21.7287V18.4322ZM26.2583 18.4137H29.6781V21.7176H26.2583V18.4137Z" fill="white"/>
<path d="M12.2583 8.93476C12.2583 8.76293 12.3479 8.65093 12.4001 8.59873C12.4525 8.54636 12.5645 8.45691 12.7361 8.45691H19.1986C19.3703 8.45691 19.4859 8.54636 19.5383 8.59873C19.5824 8.64282 19.6174 8.69522 19.6411 8.7529C19.6648 8.81058 19.6769 8.87239 19.6765 8.93476V11.3762H12.2584V8.93476H12.2583Z" fill="#79CCBF"/>
<path d="M8.54395 17.9731H10.9744V47.5652H8.54395V17.9731Z" fill="#F4CE73"/>
<path d="M23.3914 50.9701C23.3916 51.0329 23.3794 51.0951 23.3554 51.1532C23.3315 51.2113 23.2963 51.264 23.2519 51.3084C23.2075 51.3528 23.1547 51.388 23.0966 51.412C23.0386 51.4359 22.9763 51.4481 22.9135 51.4479H9.02179C8.95945 51.4483 8.89766 51.4363 8.84 51.4125C8.78235 51.3888 8.72999 51.3539 8.68595 51.3097C8.63358 51.2575 8.54395 51.1455 8.54395 50.97V49.4767H23.3914V50.9701Z" fill="#79CCBF"/>
<path d="M13.8413 17.9731H23.3912V47.5652H13.8413V17.9731Z" fill="#F4CE73"/>
<path d="M23.3914 16.0617H8.54395V14.7214C8.54395 14.5497 8.63358 14.4377 8.68595 14.3854C8.73814 14.3332 8.85015 14.2435 9.02179 14.2435H22.9135C23.1786 14.2435 23.3914 14.4601 23.3914 14.7214V16.0617Z" fill="#79CCBF"/>
<path d="M26.2583 43.7648H30.0067V47.1358H26.2583V43.7648ZM35.461 47.5204L31.9181 47.1807V43.8057L35.461 44.153V47.5204ZM40.919 48.0543L37.3725 47.7033V44.3395L40.919 44.6794V48.0543ZM46.3752 47.8079C45.132 47.961 43.9114 48.0804 42.8287 48.129V44.7539C43.9374 44.7054 45.1471 44.5823 46.3752 44.4218V47.8079ZM51.4676 47.2293L48.4511 47.5391C48.3951 47.5466 48.3391 47.5541 48.2868 47.5615V44.1641C48.4324 44.1417 48.5855 44.1194 48.7312 44.1006L51.4677 43.7871V47.2293H51.4676Z" fill="white"/>
<path d="M51.4675 41.8718L48.4547 42.2079C46.2932 42.5215 43.8404 42.8725 42.011 42.8725L36.9057 42.3758L31.7314 41.8756C31.6941 41.8718 31.6641 41.8532 31.6232 41.8532H26.2583V23.629H31.4028L36.5213 24.1293L41.9103 24.6482C43.3701 24.6482 45.1696 24.4466 46.9315 24.2114C46.9541 24.2151 46.9764 24.2264 47.0026 24.2264C47.1331 24.2264 47.2601 24.2002 47.3721 24.1516C47.8314 24.0882 48.2905 24.0247 48.7311 23.9651L51.4676 23.6588V41.8718H51.4675Z" fill="#F4CE73"/>
<path d="M51.4677 21.7437L48.4662 22.0722C48.2981 22.0946 48.1263 22.1172 47.9585 22.1431V18.8654C48.2383 18.8281 48.5296 18.787 48.8022 18.7495L51.4677 18.4471V21.7437Z" fill="white"/>
</svg>
