<svg width="38" height="51" viewBox="0 0 38 51" fill="none" xmlns="http://www.w3.org/2000/svg">
<path d="M37.75 16.75C37.75 14 35.5 11.75 32.75 11.75H25.25C24.375 11.75 23.875 10.75 24.375 9.99999C25.125 8.74999 25.5 7.24999 25.125 5.62499C24.625 3.12499 22.75 1.12499 20.375 0.624986C16.25 -0.250014 12.75 2.87499 12.75 6.74999C12.75 7.99999 13.125 8.99999 13.625 9.99999C14.125 10.75 13.625 11.75 12.625 11.75H5.125C2.375 11.75 0.125 14 0.125 16.75V25.5C0.125 26.375 1.125 26.875 1.875 26.375C3.125 25.625 4.625 25.25 6.25 25.625C8.75 26.125 10.75 28 11.25 30.375C12.125 34.375 9 38 5.125 38C3.875 38 2.875 37.625 1.875 37.125C1.25 36.625 0.25 37.125 0.25 38V45.5C0.25 48.25 2.5 50.5 5.25 50.5H32.75C35.5 50.5 37.75 48.25 37.75 45.5V16.75Z" fill="#8BC34A"/>
</svg>
